
 <svg
            width="306" height="306" viewBox="0 0 306 306"
            
            fill="none"
            xmlns="http://www.w3.org/2000/svg"
          >
           <rect width="306" height="306" fill="none"/>
<path d="M13.3122 207.5V197.938L21.9367 195.876C22.0617 191.376 22.1242 186.626 22.1242 181.627C22.1242 176.502 22.1242 172.002 22.1242 168.127V156.503C22.1242 153.003 22.1242 150.191 22.1242 148.066C22.1242 145.941 22.0617 143.942 21.9367 142.067C21.9367 140.192 21.8117 138.004 21.5617 135.505L11.4373 133.817V126.13L52.8722 113.193L56.247 115.256L57.1845 128.193C61.5592 122.943 65.9339 119.131 70.3086 116.756C74.6834 114.381 79.6205 113.193 85.1202 113.193C98.3694 113.193 106.994 118.631 110.994 129.505C116.243 123.005 121.055 118.693 125.43 116.568C129.805 114.318 134.555 113.193 139.679 113.193C149.929 113.193 157.241 116.006 161.615 121.63C166.115 127.255 168.365 135.567 168.365 146.566V168.127C168.365 172.127 168.365 176.689 168.365 181.814C168.365 186.939 168.427 191.751 168.552 196.251L176.427 197.938V207.5H126.18V197.938L133.305 196.063C133.43 191.564 133.492 186.751 133.492 181.627C133.492 176.502 133.492 172.002 133.492 168.127V149.191C133.492 142.817 132.867 138.567 131.617 136.442C130.367 134.317 128.117 133.255 124.868 133.255C120.868 133.255 116.868 134.755 112.868 137.754C112.993 138.754 113.056 139.817 113.056 140.942C113.181 142.067 113.243 143.254 113.243 144.504V168.127C113.243 172.127 113.243 176.689 113.243 181.814C113.243 186.939 113.306 191.813 113.431 196.438L120.555 197.938V207.5H70.1211V197.938L78.1831 195.876C78.3081 191.501 78.3706 186.751 78.3706 181.627C78.3706 176.502 78.3706 172.002 78.3706 168.127V149.191C78.3706 143.442 77.7457 139.379 76.4957 137.004C75.3708 134.505 72.996 133.255 69.3712 133.255C67.4963 133.255 65.5589 133.692 63.5591 134.567C61.5592 135.442 59.6218 136.567 57.7469 137.942V168.127C57.7469 172.002 57.7469 176.564 57.7469 181.814C57.7469 186.939 57.8094 191.813 57.9344 196.438L65.059 197.938V207.5H13.3122ZM184.893 207.687V198.126L193.33 196.251C193.455 191.751 193.518 186.939 193.518 181.814C193.518 176.689 193.518 172.19 193.518 168.315V90.5074L183.393 89.195V80.758L226.141 72.321L229.328 74.3834L228.578 100.444V124.068C235.952 116.818 244.827 113.193 255.201 113.193C262.076 113.193 268.325 115.006 273.95 118.631C279.575 122.13 284.012 127.443 287.262 134.567C290.637 141.567 292.324 150.441 292.324 161.19C292.324 171.44 290.387 180.252 286.512 187.626C282.637 195.001 277.575 200.688 271.325 204.688C265.201 208.562 258.639 210.5 251.639 210.5C246.264 210.5 241.577 209.562 237.577 207.687C233.578 205.938 230.078 203.375 227.078 200L223.328 210.5L184.893 207.687ZM237.952 131.755C236.327 131.755 234.765 132.005 233.265 132.505C231.89 133.005 230.515 133.692 229.14 134.567V189.876C231.64 191.626 234.578 192.501 237.952 192.501C242.952 192.501 246.952 189.939 249.952 184.814C252.951 179.689 254.451 171.815 254.451 161.19C254.451 150.441 252.951 142.879 249.952 138.504C246.952 134.005 242.952 131.755 237.952 131.755Z" fill="black"/>

              <style>
        path { fill: #121212 }
        @media (prefers-color-scheme: dark) {
            path { fill: #e8e8e8 }
        }
    </style>
          </svg>